<svg width="78" height="47" viewBox="0 0 78 47" fill="none" xmlns="http://www.w3.org/2000/svg">
<g clip-path="url(#clip0_403_874)">
<path d="M71.41 38.8H0.570007V46.79H71.41V38.8Z" fill="#455A64"/>
<path d="M70.25 39.8H0.570007V45.76H70.25V39.8Z" fill="#F5F5F5"/>
<g opacity="0.3">
<path d="M71.41 38.8H57.65V46.79H71.41V38.8Z" fill="black"/>
</g>
<path d="M70.07 41.1C69.95 41.1 69.77 41.1 69.54 41.1C69.07 41.1 68.39 41.1 67.51 41.1C65.74 41.1 63.19 41.1 60.04 41.11C53.73 41.11 45.01 41.11 35.38 41.12C25.75 41.12 17.03 41.12 10.72 41.11C7.57001 41.11 5.01001 41.1 3.25001 41.1C2.37001 41.1 1.68001 41.1 1.22001 41.1C1.69001 41.1 2.37001 41.1 3.25001 41.1C5.02001 41.1 7.57001 41.1 10.72 41.09C17.03 41.09 25.75 41.09 35.38 41.08C45.01 41.08 53.73 41.08 60.04 41.09C63.19 41.09 65.75 41.1 67.51 41.1C68.39 41.1 69.08 41.1 69.54 41.1C69.77 41.1 69.95 41.1 70.07 41.1Z" fill="#263238"/>
<path d="M70.07 42.7C69.95 42.7 69.77 42.7 69.54 42.7C69.07 42.7 68.39 42.7 67.51 42.7C65.74 42.7 63.19 42.7 60.04 42.71C53.73 42.71 45.01 42.71 35.38 42.72C25.75 42.72 17.03 42.72 10.72 42.71C7.57001 42.71 5.01001 42.7 3.25001 42.7C2.37001 42.7 1.68001 42.7 1.22001 42.7C1.69001 42.7 2.37001 42.7 3.25001 42.7C5.02001 42.7 7.57001 42.7 10.72 42.69C17.03 42.69 25.75 42.69 35.38 42.68C45.01 42.68 53.73 42.68 60.04 42.69C63.19 42.69 65.75 42.7 67.51 42.7C68.39 42.7 69.08 42.7 69.54 42.7C69.77 42.7 69.95 42.7 70.07 42.7Z" fill="#263238"/>
<path d="M70.07 44.29C69.95 44.29 69.77 44.29 69.54 44.29C69.07 44.29 68.39 44.29 67.51 44.29C65.74 44.29 63.19 44.29 60.04 44.3C53.73 44.3 45.01 44.3 35.38 44.31C25.75 44.31 17.03 44.31 10.72 44.3C7.57001 44.3 5.01001 44.29 3.25001 44.29C2.37001 44.29 1.68001 44.29 1.22001 44.29C1.69001 44.29 2.37001 44.29 3.25001 44.29C5.02001 44.29 7.57001 44.29 10.72 44.28C17.03 44.28 25.75 44.28 35.38 44.27C45.01 44.27 53.73 44.27 60.04 44.28C63.19 44.28 65.75 44.29 67.51 44.29C68.39 44.29 69.08 44.29 69.54 44.29C69.77 44.29 69.95 44.29 70.07 44.29Z" fill="#263238"/>
<path d="M57.69 46.66C57.69 46.66 57.65 44.92 57.65 42.78C57.65 40.64 57.67 38.9 57.69 38.9C57.71 38.9 57.73 40.64 57.73 42.78C57.73 44.92 57.71 46.66 57.69 46.66Z" fill="#263238"/>
<path d="M53.76 27.24L76.16 27.24V19.38L53.76 19.38V27.24Z" fill="#EBEBEB"/>
<path d="M6.74998 19.67L77.1 19.67V18.02L6.74998 18.02V19.67Z" fill="#455A64"/>
<path d="M6.74002 28.53L76.77 28.53V26.88L6.74002 26.88V28.53Z" fill="#455A64"/>
<path d="M53.77 18.42L53.66 28.21H6.75V18.42H53.77Z" fill="#455A64"/>
<path d="M42.36 23.3C42.36 24.65 43.5 25.74 44.9 25.74C46.3 25.74 47.44 24.65 47.44 23.3C47.44 21.95 46.3 20.86 44.9 20.86C43.5 20.86 42.36 21.95 42.36 23.3Z" fill="#263238"/>
<path d="M41.97 23.3C41.97 21.76 43.28 20.51 44.9 20.51C46.52 20.51 47.83 21.76 47.83 23.3C47.83 24.84 46.52 26.09 44.9 26.09C43.28 26.09 41.97 24.84 41.97 23.3ZM42.76 23.3C42.76 24.45 43.72 25.39 44.9 25.39C46.08 25.39 47.04 24.45 47.04 23.3C47.04 22.15 46.08 21.21 44.9 21.21C43.72 21.21 42.76 22.15 42.76 23.3Z" fill="#E0E0E0"/>
<path d="M55.45 25.31C55.45 25.41 60.05 25.49 65.73 25.49C71.41 25.49 76.01 25.41 76.01 25.31C76.01 25.21 71.41 25.13 65.73 25.13C60.05 25.13 55.45 25.21 55.45 25.31Z" fill="#263238"/>
<path d="M55.45 23.94C55.45 24.04 60.05 24.12 65.73 24.12C71.41 24.12 76.01 24.04 76.01 23.94C76.01 23.84 71.41 23.76 65.73 23.76C60.05 23.76 55.45 23.84 55.45 23.94Z" fill="#263238"/>
<path d="M55.45 22.57C55.45 22.67 60.05 22.75 65.73 22.75C71.41 22.75 76.01 22.67 76.01 22.57C76.01 22.47 71.41 22.39 65.73 22.39C60.05 22.39 55.45 22.47 55.45 22.57Z" fill="#263238"/>
<path d="M55.45 21.2C55.45 21.3 60.05 21.38 65.73 21.38C71.41 21.38 76.01 21.3 76.01 21.2C76.01 21.1 71.41 21.02 65.73 21.02C60.05 21.02 55.45 21.1 55.45 21.2Z" fill="#263238"/>
<path d="M11.95 25.74L33.09 25.74V20.5L11.95 20.5V25.74Z" fill="white"/>
<path d="M29.8 25.21C29.91 25.21 30 24.27 30 23.12C30 21.97 29.91 21.03 29.8 21.03C29.69 21.03 29.6 21.96 29.6 23.12C29.6 24.28 29.69 25.21 29.8 25.21Z" fill="#E0E0E0"/>
<path d="M27 25.21C27.11 25.21 27.2 24.27 27.2 23.12C27.2 21.97 27.11 21.03 27 21.03C26.89 21.03 26.8 21.96 26.8 23.12C26.8 24.28 26.89 25.21 27 25.21Z" fill="#E0E0E0"/>
<path d="M24.21 25.21C24.32 25.21 24.41 24.27 24.41 23.12C24.41 21.97 24.32 21.03 24.21 21.03C24.1 21.03 24.01 21.96 24.01 23.12C24.01 24.28 24.1 25.21 24.21 25.21Z" fill="#E0E0E0"/>
<path d="M21.41 25.21C21.52 25.21 21.61 24.27 21.61 23.12C21.61 21.97 21.52 21.03 21.41 21.03C21.3 21.03 21.21 21.96 21.21 23.12C21.21 24.28 21.3 25.21 21.41 25.21Z" fill="#E0E0E0"/>
<path d="M18.62 25.21C18.73 25.21 18.82 24.27 18.82 23.12C18.82 21.97 18.73 21.03 18.62 21.03C18.51 21.03 18.42 21.96 18.42 23.12C18.42 24.28 18.51 25.21 18.62 25.21Z" fill="#E0E0E0"/>
<path d="M15.82 25.21C15.93 25.21 16.02 24.27 16.02 23.12C16.02 21.97 15.93 21.03 15.82 21.03C15.71 21.03 15.62 21.96 15.62 23.12C15.62 24.28 15.71 25.21 15.82 25.21Z" fill="#E0E0E0"/>
<path d="M53.45 28.51C53.56 28.51 53.65 26.18 53.65 23.31C53.65 20.44 53.56 18.11 53.45 18.11C53.34 18.11 53.25 20.44 53.25 23.31C53.25 26.18 53.34 28.51 53.45 28.51Z" fill="#263238"/>
<path d="M9.13001 2.74V0.18L69.26 0.29H72.73V2.78H69.26V18.1H4.32001V2.74H9.13001Z" fill="#F5F5F5"/>
<path d="M23.87 18.1V0.18H9.13001V2.74H4.32001V18.1H23.87Z" fill="#EBEBEB"/>
<path d="M9.13 0.18C9.13 0.28 23.25 0.36 40.66 0.36C58.07 0.36 72.19 0.28 72.19 0.18C72.19 0.08 58.08 0 40.66 0C23.24 0 9.13 0.08 9.13 0.18Z" fill="#E0E0E0"/>
<path d="M4.79999 8.23C4.79999 8.33 19.18 8.41 36.91 8.41C54.64 8.41 69.02 8.33 69.02 8.23C69.02 8.13 54.65 8.05 36.91 8.05C19.17 8.05 4.79999 8.13 4.79999 8.23Z" fill="#E0E0E0"/>
<path d="M4.32001 13.72C4.32001 13.82 18.8 13.9 36.67 13.9C54.54 13.9 69.02 13.82 69.02 13.72C69.02 13.62 54.54 13.54 36.67 13.54C18.8 13.54 4.32001 13.62 4.32001 13.72Z" fill="#E0E0E0"/>
<path d="M72.19 2.74C72.19 2.64 58.07 2.56 40.66 2.56C23.25 2.56 9.13 2.64 9.13 2.74C9.13 2.84 23.24 2.92 40.66 2.92C58.08 2.92 72.19 2.84 72.19 2.74Z" fill="#E0E0E0"/>
<path d="M50.79 37.44H73.19V29.58L50.79 29.58V37.44Z" fill="#EBEBEB"/>
<path d="M3.76999 29.88L74.12 29.88V28.23L3.76999 28.23V29.88Z" fill="#FF725E"/>
<path d="M3.77004 38.75L73.8 38.75V37.1L3.77004 37.1V38.75Z" fill="#FF725E"/>
<path d="M50.79 28.63L50.68 38.43H3.77002V28.63H50.79Z" fill="#FF725E"/>
<path d="M39.3901 33.52C39.3901 34.87 40.5301 35.96 41.9301 35.96C43.3301 35.96 44.4701 34.87 44.4701 33.52C44.4701 32.17 43.3301 31.08 41.9301 31.08C40.5301 31.08 39.3901 32.17 39.3901 33.52Z" fill="#263238"/>
<path d="M38.9901 33.52C38.9901 31.98 40.3 30.73 41.92 30.73C43.54 30.73 44.85 31.98 44.85 33.52C44.85 35.06 43.54 36.31 41.92 36.31C40.3 36.31 38.9901 35.06 38.9901 33.52ZM39.78 33.52C39.78 34.67 40.74 35.61 41.92 35.61C43.1 35.61 44.0601 34.67 44.0601 33.52C44.0601 32.37 43.1 31.43 41.92 31.43C40.74 31.43 39.78 32.37 39.78 33.52Z" fill="#E0E0E0"/>
<path d="M52.47 35.52C52.47 35.62 57.07 35.7 62.75 35.7C68.43 35.7 73.03 35.62 73.03 35.52C73.03 35.42 68.43 35.34 62.75 35.34C57.07 35.34 52.47 35.42 52.47 35.52Z" fill="#263238"/>
<path d="M52.47 34.15C52.47 34.25 57.07 34.33 62.75 34.33C68.43 34.33 73.03 34.25 73.03 34.15C73.03 34.05 68.43 33.97 62.75 33.97C57.07 33.97 52.47 34.05 52.47 34.15Z" fill="#263238"/>
<path d="M52.47 32.78C52.47 32.88 57.07 32.96 62.75 32.96C68.43 32.96 73.03 32.88 73.03 32.78C73.03 32.68 68.43 32.6 62.75 32.6C57.07 32.6 52.47 32.68 52.47 32.78Z" fill="#263238"/>
<path d="M52.47 31.41C52.47 31.51 57.07 31.59 62.75 31.59C68.43 31.59 73.03 31.51 73.03 31.41C73.03 31.31 68.43 31.23 62.75 31.23C57.07 31.23 52.47 31.31 52.47 31.41Z" fill="#263238"/>
<path d="M8.98006 35.96H30.1201V30.72L8.98006 30.72V35.96Z" fill="white"/>
<path d="M26.8201 35.42C26.9301 35.42 27.0201 34.48 27.0201 33.33C27.0201 32.18 26.9301 31.24 26.8201 31.24C26.7101 31.24 26.6201 32.18 26.6201 33.33C26.6201 34.48 26.7101 35.42 26.8201 35.42Z" fill="#E0E0E0"/>
<path d="M24.03 35.42C24.14 35.42 24.23 34.48 24.23 33.33C24.23 32.18 24.14 31.24 24.03 31.24C23.92 31.24 23.83 32.18 23.83 33.33C23.83 34.48 23.92 35.42 24.03 35.42Z" fill="#E0E0E0"/>
<path d="M21.23 35.42C21.34 35.42 21.44 34.48 21.44 33.33C21.44 32.18 21.35 31.24 21.23 31.24C21.11 31.24 21.03 32.18 21.03 33.33C21.03 34.48 21.12 35.42 21.23 35.42Z" fill="#E0E0E0"/>
<path d="M18.43 35.42C18.54 35.42 18.63 34.48 18.63 33.33C18.63 32.18 18.54 31.24 18.43 31.24C18.32 31.24 18.23 32.18 18.23 33.33C18.23 34.48 18.32 35.42 18.43 35.42Z" fill="#E0E0E0"/>
<path d="M15.6401 35.42C15.7501 35.42 15.8401 34.48 15.8401 33.33C15.8401 32.18 15.7501 31.24 15.6401 31.24C15.5301 31.24 15.4401 32.18 15.4401 33.33C15.4401 34.48 15.5301 35.42 15.6401 35.42Z" fill="#E0E0E0"/>
<path d="M12.84 35.42C12.95 35.42 13.04 34.48 13.04 33.33C13.04 32.18 12.95 31.24 12.84 31.24C12.73 31.24 12.64 32.18 12.64 33.33C12.64 34.48 12.73 35.42 12.84 35.42Z" fill="#E0E0E0"/>
<path d="M50.47 38.72C50.58 38.72 50.67 36.39 50.67 33.52C50.67 30.65 50.58 28.32 50.47 28.32C50.36 28.32 50.27 30.65 50.27 33.52C50.27 36.39 50.36 38.72 50.47 38.72Z" fill="#263238"/>
</g>
<defs>
<clipPath id="clip0_403_874">
<rect width="76.6" height="46.79" fill="white" transform="translate(0.5)"/>
</clipPath>
</defs>
</svg>
